<svg width="25" height="24" viewBox="0 0 25 24" fill="none" xmlns="http://www.w3.org/2000/svg">
<ellipse cx="12.5114" cy="12" rx="11.8503" ry="12" fill="#F1F1F1"/>
<path d="M9.79564 15.75H8.19091C7.76531 15.75 7.35714 15.5788 7.0562 15.274C6.75525 14.9693 6.58618 14.556 6.58618 14.125V7.625C6.58618 7.19402 6.75525 6.7807 7.0562 6.47595C7.35714 6.1712 7.76531 6 8.19091 6H14.6098C15.0354 6 15.4436 6.1712 15.7445 6.47595C16.0455 6.7807 16.2145 7.19402 16.2145 7.625V9.25L9.79564 15.75ZM11.4004 19H17.8193C18.2449 19 18.653 18.8288 18.954 18.524C19.2549 18.2193 19.424 17.806 19.424 17.375V10.875C19.424 10.444 19.2549 10.0307 18.954 9.72595C18.653 9.42121 18.2449 9.25 17.8193 9.25H11.4004C10.9748 9.25 10.5666 9.42121 10.2657 9.72595C9.96471 10.0307 9.79564 10.444 9.79564 10.875V17.375C9.79564 17.806 9.96471 18.2193 10.2657 18.524C10.5666 18.8288 10.9748 19 11.4004 19Z" stroke="#B4B4B4" stroke-width="2" stroke-linecap="round" stroke-linejoin="round"/>
</svg>
