<svg width="24" height="24" viewBox="0 0 24 24" fill="none" xmlns="http://www.w3.org/2000/svg">
<ellipse cx="12.1496" cy="12" rx="11.8503" ry="12" fill="#F1F1F1"/>
<path d="M12.6434 3.38574C13.2924 3.3857 13.9168 3.63714 14.3886 4.08848C14.8603 4.53983 15.1436 5.15685 15.1803 5.81299L15.1842 5.95866H19.2886C19.4372 5.95871 19.5802 6.01585 19.6888 6.11855C19.7973 6.22126 19.8633 6.36185 19.8734 6.51194C19.8836 6.66202 19.8371 6.81041 19.7433 6.9271C19.6496 7.0438 19.5156 7.12011 19.3684 7.14062L19.2886 7.14616H18.6663L17.6656 17.4537C17.6155 17.9675 17.3866 18.4466 17.0199 18.8054C16.6531 19.1642 16.1724 19.3793 15.6635 19.4122L15.5259 19.417H9.76096C9.25082 19.417 8.7573 19.2333 8.3686 18.8987C7.97991 18.5641 7.72137 18.1005 7.63919 17.5906L7.6212 17.4529L6.61973 7.14616H5.99821C5.85652 7.14615 5.71962 7.09419 5.61284 6.99989C5.50606 6.90558 5.43661 6.77531 5.41734 6.63316L5.41187 6.55241C5.41187 6.40893 5.46318 6.27031 5.55631 6.16217C5.64944 6.05404 5.77809 5.98371 5.91847 5.9642L5.99821 5.95866H10.1026C10.1026 5.27628 10.3703 4.62185 10.8468 4.13933C11.3233 3.65682 11.9696 3.38574 12.6434 3.38574ZM17.4882 7.14616H7.79789L8.78842 17.3365C8.81035 17.5639 8.9093 17.7766 9.06847 17.9385C9.22765 18.1004 9.43724 18.2015 9.66168 18.2247L9.76096 18.2295H15.5259C15.995 18.2295 16.3929 17.893 16.4836 17.4362L16.4992 17.3365L17.4874 7.14616H17.4882ZM14.0116 9.32324C14.1532 9.32325 14.2901 9.37521 14.3969 9.46952C14.5037 9.56382 14.5732 9.6941 14.5924 9.83624L14.5979 9.91699V15.4587C14.5979 15.6091 14.5414 15.7539 14.44 15.8638C14.3386 15.9738 14.1997 16.0406 14.0515 16.0508C13.9033 16.0611 13.7568 16.014 13.6415 15.9191C13.5263 15.8241 13.4509 15.6884 13.4307 15.5394L13.4252 15.4587V9.91699C13.4252 9.75952 13.487 9.6085 13.597 9.49715C13.7069 9.3858 13.8561 9.32324 14.0116 9.32324ZM11.2753 9.32324C11.417 9.32325 11.5539 9.37521 11.6607 9.46952C11.7674 9.56382 11.8369 9.6941 11.8562 9.83624L11.8616 9.91699V15.4587C11.8616 15.6091 11.8052 15.7539 11.7037 15.8638C11.6023 15.9738 11.4635 16.0406 11.3153 16.0508C11.167 16.0611 11.0205 16.014 10.9053 15.9191C10.79 15.8241 10.7147 15.6884 10.6944 15.5394L10.689 15.4587V9.91699C10.689 9.75952 10.7507 9.6085 10.8607 9.49715C10.9706 9.3858 11.1198 9.32324 11.2753 9.32324ZM12.6434 4.57324C12.3001 4.57326 11.9693 4.704 11.7167 4.93953C11.4641 5.17506 11.3082 5.49815 11.28 5.84466L11.2753 5.95866H14.0116C14.0116 5.59122 13.8674 5.23884 13.6108 4.97902C13.3543 4.71921 13.0063 4.57324 12.6434 4.57324Z" fill="#B4B4B4"/>
</svg>
