<svg width="8" height="8" viewBox="0 0 8 8" fill="none" xmlns="http://www.w3.org/2000/svg">
<path d="M6.90989 0.8187C7.01538 0.924189 7.07464 1.06726 7.07464 1.21645C7.07464 1.36563 7.01538 1.50871 6.90989 1.61419L4.5234 4.00068L6.90989 6.38717C7.01538 6.49265 7.07464 6.63573 7.07464 6.78491C7.07464 6.9341 7.01538 7.07717 6.90989 7.18266C6.8044 7.28815 6.66132 7.34741 6.51214 7.34741C6.36295 7.34741 6.21988 7.28815 6.11439 7.18266L3.72791 4.79618L1.34142 7.18266C1.23593 7.28815 1.09286 7.34741 0.943673 7.34741C0.794489 7.34741 0.651414 7.28815 0.545925 7.18266C0.440436 7.07717 0.381173 6.9341 0.381172 6.78491C0.381172 6.63573 0.440436 6.49265 0.545925 6.38717L2.93241 4.00068L0.545925 1.61419C0.440436 1.50871 0.381172 1.36563 0.381172 1.21645C0.381172 1.06726 0.440436 0.924188 0.545925 0.818699C0.651414 0.71321 0.794488 0.653947 0.943672 0.653947C1.09286 0.653947 1.23593 0.71321 1.34142 0.818699L3.72791 3.20518L6.11439 0.8187C6.21988 0.71321 6.36295 0.653947 6.51214 0.653947C6.66132 0.653947 6.8044 0.71321 6.90989 0.8187Z" fill="#FF2626"/>
</svg>
