<svg width="19" height="19" viewBox="0 0 19 19" fill="none" xmlns="http://www.w3.org/2000/svg">
<path d="M12.375 0.515625C11.4374 0.515648 10.5124 0.731471 9.6716 1.14638C8.83081 1.56129 8.09679 2.16415 7.52639 2.90828C6.95599 3.65241 6.56452 4.51784 6.38229 5.43756C6.20005 6.35727 6.23195 7.30659 6.4755 8.212L0.515625 14.1719V18.4844H4.82812V16.3281H6.98438V14.1719H9.14062L10.7937 12.5188C11.3098 12.6596 11.8403 12.7315 12.375 12.7344C13.9953 12.7344 15.5493 12.0907 16.695 10.945C17.8407 9.79925 18.4844 8.24531 18.4844 6.625C18.4844 5.00469 17.8407 3.45075 16.695 2.30502C15.5493 1.15929 13.9953 0.515625 12.375 0.515625Z" fill="black" stroke="black" stroke-width="0.5" stroke-linecap="round" stroke-linejoin="round"/>
</svg>
