<svg width="12" height="12" viewBox="0 0 12 12" fill="none" xmlns="http://www.w3.org/2000/svg">
<path d="M2 1C1.73478 1 1.48043 1.10536 1.29289 1.29289C1.10536 1.48043 1 1.73478 1 2V10C1 10.2652 1.10536 10.5196 1.29289 10.7071C1.48043 10.8946 1.73478 11 2 11V7.5C2 7.10218 2.15804 6.72064 2.43934 6.43934C2.72064 6.15804 3.10218 6 3.5 6H8.5C8.89782 6 9.27936 6.15804 9.56066 6.43934C9.84196 6.72064 10 7.10218 10 7.5V11C10.2652 11 10.5196 10.8946 10.7071 10.7071C10.8946 10.5196 11 10.2652 11 10V3.621C10.9999 3.3558 10.8945 3.10149 10.707 2.914L9.086 1.293C8.89851 1.10545 8.64419 1.00006 8.379 1H8V2.5C8 2.89782 7.84196 3.27936 7.56066 3.56066C7.27936 3.84196 6.89782 4 6.5 4H4.5C4.10218 4 3.72064 3.84196 3.43934 3.56066C3.15804 3.27936 3 2.89782 3 2.5V1H2ZM4 1V2.5C4 2.63261 4.05268 2.75979 4.14645 2.85355C4.24021 2.94732 4.36739 3 4.5 3H6.5C6.63261 3 6.75979 2.94732 6.85355 2.85355C6.94732 2.75979 7 2.63261 7 2.5V1H4ZM9 11V7.5C9 7.36739 8.94732 7.24021 8.85355 7.14645C8.75979 7.05268 8.63261 7 8.5 7H3.5C3.36739 7 3.24021 7.05268 3.14645 7.14645C3.05268 7.24021 3 7.36739 3 7.5V11H9ZM0 2C0 1.46957 0.210714 0.960859 0.585786 0.585786C0.960859 0.210714 1.46957 0 2 0H8.379C8.90939 0.000113275 9.41801 0.210901 9.793 0.586L11.414 2.207C11.7891 2.58199 11.9999 3.09061 12 3.621V10C12 10.5304 11.7893 11.0391 11.4142 11.4142C11.0391 11.7893 10.5304 12 10 12H2C1.46957 12 0.960859 11.7893 0.585786 11.4142C0.210714 11.0391 0 10.5304 0 10V2Z" fill="white"/>
</svg>
