<svg width="20" height="20" viewBox="0 0 20 20" fill="none" xmlns="http://www.w3.org/2000/svg">
<path d="M4.29368 11.1045L10.0374 5.35952C10.5649 4.83207 11.2803 4.53576 12.0262 4.53576C12.7721 4.53576 13.4875 4.83207 14.0149 5.35952C14.5424 5.88697 14.8387 6.60235 14.8387 7.34827C14.8387 8.0942 14.5424 8.80957 14.0149 9.33702L7.38743 15.9658C7.30099 16.0554 7.19758 16.1268 7.08322 16.176C6.96887 16.2252 6.84586 16.2511 6.72138 16.2523C6.5969 16.2534 6.47344 16.2297 6.3582 16.1826C6.24297 16.1356 6.13826 16.066 6.05019 15.978C5.96213 15.89 5.89247 15.7854 5.84527 15.6702C5.79808 15.555 5.7743 15.4316 5.77533 15.3071C5.77635 15.1826 5.80215 15.0596 5.85123 14.9452C5.90031 14.8308 5.97168 14.7273 6.06118 14.6408L12.6899 8.01077C12.8555 7.83306 12.9457 7.598 12.9414 7.35512C12.9371 7.11224 12.8387 6.88051 12.667 6.70875C12.4952 6.53698 12.2635 6.43859 12.0206 6.43431C11.7777 6.43002 11.5426 6.52017 11.3649 6.68577L4.73493 13.3145C4.20748 13.842 3.91116 14.5573 3.91116 15.3033C3.91116 16.0492 4.20748 16.7646 4.73493 17.292C5.26238 17.8195 5.97775 18.1158 6.72368 18.1158C7.46961 18.1158 8.18498 17.8195 8.71243 17.292L15.3424 10.6633C16.2216 9.78408 16.7155 8.59164 16.7155 7.34827C16.7155 6.10491 16.2216 4.91247 15.3424 4.03327C14.4632 3.15408 13.2708 2.66016 12.0274 2.66016C10.7841 2.66016 9.59162 3.15408 8.71243 4.03327L2.96743 9.77827C2.87785 9.86471 2.80638 9.96813 2.75719 10.0825C2.70801 10.1968 2.68209 10.3198 2.68095 10.4443C2.67981 10.5688 2.70347 10.6923 2.75055 10.8075C2.79764 10.9227 2.8672 11.0274 2.95518 11.1155C3.04317 11.2036 3.14781 11.2732 3.263 11.3204C3.37819 11.3676 3.50163 11.3914 3.62611 11.3904C3.75059 11.3894 3.87362 11.3636 3.98802 11.3145C4.10242 11.2654 4.20591 11.194 4.29243 11.1045H4.29368Z" fill="black"/>
</svg>
