<svg width="20" height="20" viewBox="0 0 20 20" fill="none" xmlns="http://www.w3.org/2000/svg">
<path d="M9.16675 15.8327H17.5001M9.16675 4.16602H17.5001H9.16675ZM9.16675 9.99935H17.5001H9.16675Z" stroke="black" stroke-width="2" stroke-linecap="round" stroke-linejoin="round"/>
<path d="M4.16667 5.83333C5.08714 5.83333 5.83333 5.08714 5.83333 4.16667C5.83333 3.24619 5.08714 2.5 4.16667 2.5C3.24619 2.5 2.5 3.24619 2.5 4.16667C2.5 5.08714 3.24619 5.83333 4.16667 5.83333Z" stroke="black" stroke-linecap="round" stroke-linejoin="round"/>
<path d="M4.16667 11.6673C5.08714 11.6673 5.83333 10.9211 5.83333 10.0007C5.83333 9.08018 5.08714 8.33398 4.16667 8.33398C3.24619 8.33398 2.5 9.08018 2.5 10.0007C2.5 10.9211 3.24619 11.6673 4.16667 11.6673Z" stroke="black" stroke-linecap="round" stroke-linejoin="round"/>
<path d="M4.16667 17.4993C5.08714 17.4993 5.83333 16.7532 5.83333 15.8327C5.83333 14.9122 5.08714 14.166 4.16667 14.166C3.24619 14.166 2.5 14.9122 2.5 15.8327C2.5 16.7532 3.24619 17.4993 4.16667 17.4993Z" stroke="black" stroke-linecap="round" stroke-linejoin="round"/>
</svg>
