<svg width="20" height="20" viewBox="0 0 20 20" fill="none" xmlns="http://www.w3.org/2000/svg">
<path d="M2.5 5.00033C2.5 4.77931 2.5878 4.56735 2.74408 4.41107C2.90036 4.25479 3.11232 4.16699 3.33333 4.16699H8.33333C8.55435 4.16699 8.76631 4.25479 8.92259 4.41107C9.07887 4.56735 9.16667 4.77931 9.16667 5.00033C9.16667 5.22134 9.07887 5.4333 8.92259 5.58958C8.76631 5.74586 8.55435 5.83366 8.33333 5.83366H3.33333C3.11232 5.83366 2.90036 5.74586 2.74408 5.58958C2.5878 5.4333 2.5 5.22134 2.5 5.00033ZM2.5 8.33366C2.5 8.11265 2.5878 7.90068 2.74408 7.7444C2.90036 7.58812 3.11232 7.50033 3.33333 7.50033H8.33333C8.55435 7.50033 8.76631 7.58812 8.92259 7.7444C9.07887 7.90068 9.16667 8.11265 9.16667 8.33366C9.16667 8.55467 9.07887 8.76663 8.92259 8.92291C8.76631 9.0792 8.55435 9.16699 8.33333 9.16699H3.33333C3.11232 9.16699 2.90036 9.0792 2.74408 8.92291C2.5878 8.76663 2.5 8.55467 2.5 8.33366ZM2.5 11.667C2.5 11.446 2.5878 11.234 2.74408 11.0777C2.90036 10.9215 3.11232 10.8337 3.33333 10.8337H8.33333C8.55435 10.8337 8.76631 10.9215 8.92259 11.0777C9.07887 11.234 9.16667 11.446 9.16667 11.667C9.16667 11.888 9.07887 12.1 8.92259 12.2562C8.76631 12.4125 8.55435 12.5003 8.33333 12.5003H3.33333C3.11232 12.5003 2.90036 12.4125 2.74408 12.2562C2.5878 12.1 2.5 11.888 2.5 11.667ZM2.5 15.0003C2.5 14.7793 2.5878 14.5674 2.74408 14.4111C2.90036 14.2548 3.11232 14.167 3.33333 14.167H8.33333C8.55435 14.167 8.76631 14.2548 8.92259 14.4111C9.07887 14.5674 9.16667 14.7793 9.16667 15.0003C9.16667 15.2213 9.07887 15.4333 8.92259 15.5896C8.76631 15.7459 8.55435 15.8337 8.33333 15.8337H3.33333C3.11232 15.8337 2.90036 15.7459 2.74408 15.5896C2.5878 15.4333 2.5 15.2213 2.5 15.0003ZM10.8333 5.00033C10.8333 4.77931 10.9211 4.56735 11.0774 4.41107C11.2337 4.25479 11.4457 4.16699 11.6667 4.16699H16.6667C16.8877 4.16699 17.0996 4.25479 17.2559 4.41107C17.4122 4.56735 17.5 4.77931 17.5 5.00033C17.5 5.22134 17.4122 5.4333 17.2559 5.58958C17.0996 5.74586 16.8877 5.83366 16.6667 5.83366H11.6667C11.4457 5.83366 11.2337 5.74586 11.0774 5.58958C10.9211 5.4333 10.8333 5.22134 10.8333 5.00033ZM10.8333 8.33366C10.8333 8.11265 10.9211 7.90068 11.0774 7.7444C11.2337 7.58812 11.4457 7.50033 11.6667 7.50033H16.6667C16.8877 7.50033 17.0996 7.58812 17.2559 7.7444C17.4122 7.90068 17.5 8.11265 17.5 8.33366C17.5 8.55467 17.4122 8.76663 17.2559 8.92291C17.0996 9.0792 16.8877 9.16699 16.6667 9.16699H11.6667C11.4457 9.16699 11.2337 9.0792 11.0774 8.92291C10.9211 8.76663 10.8333 8.55467 10.8333 8.33366ZM10.8333 11.667C10.8333 11.446 10.9211 11.234 11.0774 11.0777C11.2337 10.9215 11.4457 10.8337 11.6667 10.8337H16.6667C16.8877 10.8337 17.0996 10.9215 17.2559 11.0777C17.4122 11.234 17.5 11.446 17.5 11.667C17.5 11.888 17.4122 12.1 17.2559 12.2562C17.0996 12.4125 16.8877 12.5003 16.6667 12.5003H11.6667C11.4457 12.5003 11.2337 12.4125 11.0774 12.2562C10.9211 12.1 10.8333 11.888 10.8333 11.667ZM10.8333 15.0003C10.8333 14.7793 10.9211 14.5674 11.0774 14.4111C11.2337 14.2548 11.4457 14.167 11.6667 14.167H16.6667C16.8877 14.167 17.0996 14.2548 17.2559 14.4111C17.4122 14.5674 17.5 14.7793 17.5 15.0003C17.5 15.2213 17.4122 15.4333 17.2559 15.5896C17.0996 15.7459 16.8877 15.8337 16.6667 15.8337H11.6667C11.4457 15.8337 11.2337 15.7459 11.0774 15.5896C10.9211 15.4333 10.8333 15.2213 10.8333 15.0003Z" fill="#282F6A"/>
</svg>
