<svg width="20" height="20" viewBox="0 0 20 20" fill="none" xmlns="http://www.w3.org/2000/svg">
<path d="M3.33333 4.16699C3.11232 4.16699 2.90036 4.25479 2.74408 4.41107C2.5878 4.56735 2.5 4.77931 2.5 5.00033C2.5 5.22134 2.5878 5.4333 2.74408 5.58958C2.90036 5.74586 3.11232 5.83366 3.33333 5.83366H16.6667C16.8877 5.83366 17.0996 5.74586 17.2559 5.58958C17.4122 5.4333 17.5 5.22134 17.5 5.00033C17.5 4.77931 17.4122 4.56735 17.2559 4.41107C17.0996 4.25479 16.8877 4.16699 16.6667 4.16699H3.33333ZM3.33333 7.50033C3.11232 7.50033 2.90036 7.58812 2.74408 7.7444C2.5878 7.90068 2.5 8.11265 2.5 8.33366C2.5 8.55467 2.5878 8.76663 2.74408 8.92291C2.90036 9.0792 3.11232 9.16699 3.33333 9.16699H16.6667C16.8877 9.16699 17.0996 9.0792 17.2559 8.92291C17.4122 8.76663 17.5 8.55467 17.5 8.33366C17.5 8.11265 17.4122 7.90068 17.2559 7.7444C17.0996 7.58812 16.8877 7.50033 16.6667 7.50033H3.33333ZM2.5 11.667C2.5 11.446 2.5878 11.234 2.74408 11.0777C2.90036 10.9215 3.11232 10.8337 3.33333 10.8337H16.6667C16.8877 10.8337 17.0996 10.9215 17.2559 11.0777C17.4122 11.234 17.5 11.446 17.5 11.667C17.5 11.888 17.4122 12.1 17.2559 12.2562C17.0996 12.4125 16.8877 12.5003 16.6667 12.5003H3.33333C3.11232 12.5003 2.90036 12.4125 2.74408 12.2562C2.5878 12.1 2.5 11.888 2.5 11.667ZM3.33333 14.167C3.11232 14.167 2.90036 14.2548 2.74408 14.4111C2.5878 14.5674 2.5 14.7793 2.5 15.0003C2.5 15.2213 2.5878 15.4333 2.74408 15.5896C2.90036 15.7459 3.11232 15.8337 3.33333 15.8337H16.6667C16.8877 15.8337 17.0996 15.7459 17.2559 15.5896C17.4122 15.4333 17.5 15.2213 17.5 15.0003C17.5 14.7793 17.4122 14.5674 17.2559 14.4111C17.0996 14.2548 16.8877 14.167 16.6667 14.167H3.33333Z" fill="#282F6A"/>
</svg>
