<svg width="20" height="20" viewBox="0 0 20 20" fill="none" xmlns="http://www.w3.org/2000/svg">
<path d="M16.25 3.75V1.25H1.25V7.5H6.875V18.75H18.75V3.75H16.25ZM2.5 6.25V2.5H15V3.75H6.875V6.25H2.5ZM17.5 17.5H8.125V5H17.5V17.5Z" fill="black"/>
<path d="M9.375 6.875H10.625V8.125H9.375V6.875Z" fill="black"/>
<path d="M11.875 6.875H16.25V8.125H11.875V6.875Z" fill="black"/>
<path d="M9.375 10.625H10.625V11.875H9.375V10.625Z" fill="black"/>
<path d="M11.875 10.625H16.25V11.875H11.875V10.625Z" fill="black"/>
<path d="M9.375 14.375H10.625V15.625H9.375V14.375Z" fill="black"/>
<path d="M11.875 14.375H16.25V15.625H11.875V14.375Z" fill="black"/>
</svg>
