<svg width="15" height="15" viewBox="0 0 15 15" fill="none" xmlns="http://www.w3.org/2000/svg">
<path d="M13.125 2.8125V12.1875H14.0625C14.1868 12.1875 14.306 12.2369 14.394 12.3248C14.4819 12.4127 14.5312 12.5319 14.5312 12.6562V13.5938C14.5312 13.7181 14.4819 13.8373 14.394 13.9252C14.306 14.0131 14.1868 14.0625 14.0625 14.0625H9.375C9.25068 14.0625 9.13145 14.0131 9.04354 13.9252C8.95564 13.8373 8.90625 13.7181 8.90625 13.5938V12.6562C8.90625 12.5319 8.95564 12.4127 9.04354 12.3248C9.13145 12.2369 9.25068 12.1875 9.375 12.1875H10.3125V8.4375H4.6875V12.1875H5.625C5.74932 12.1875 5.86855 12.2369 5.95646 12.3248C6.04436 12.4127 6.09375 12.5319 6.09375 12.6562V13.5938C6.09375 13.7181 6.04436 13.8373 5.95646 13.9252C5.86855 14.0131 5.74932 14.0625 5.625 14.0625H0.9375C0.81318 14.0625 0.693951 14.0131 0.606044 13.9252C0.518136 13.8373 0.46875 13.7181 0.46875 13.5938V12.6562C0.46875 12.5319 0.518136 12.4127 0.606044 12.3248C0.693951 12.2369 0.81318 12.1875 0.9375 12.1875H1.875V2.8125H0.9375C0.81318 2.8125 0.693951 2.76311 0.606044 2.67521C0.518136 2.5873 0.46875 2.46807 0.46875 2.34375V1.40625C0.46875 1.28193 0.518136 1.1627 0.606044 1.07479C0.693951 0.986886 0.81318 0.9375 0.9375 0.9375H5.625C5.74932 0.9375 5.86855 0.986886 5.95646 1.07479C6.04436 1.1627 6.09375 1.28193 6.09375 1.40625V2.34375C6.09375 2.46807 6.04436 2.5873 5.95646 2.67521C5.86855 2.76311 5.74932 2.8125 5.625 2.8125H4.6875V6.5625H10.3125V2.8125H9.375C9.25068 2.8125 9.13145 2.76311 9.04354 2.67521C8.95564 2.5873 8.90625 2.46807 8.90625 2.34375V1.40625C8.90625 1.28193 8.95564 1.1627 9.04354 1.07479C9.13145 0.986886 9.25068 0.9375 9.375 0.9375H14.0625C14.1868 0.9375 14.306 0.986886 14.394 1.07479C14.4819 1.1627 14.5312 1.28193 14.5312 1.40625V2.34375C14.5312 2.46807 14.4819 2.5873 14.394 2.67521C14.306 2.76311 14.1868 2.8125 14.0625 2.8125H13.125Z" fill="#262A2D"/>
</svg>
