<svg width="20" height="20" viewBox="0 0 20 20" fill="none" xmlns="http://www.w3.org/2000/svg">
<path d="M9.16675 15.8327H17.5001M9.16675 4.16602H17.5001H9.16675ZM9.16675 9.99935H17.5001H9.16675Z" stroke="black" stroke-width="2" stroke-linecap="round" stroke-linejoin="round"/>
<path d="M5 2.5H3.33333C2.8731 2.5 2.5 2.8731 2.5 3.33333V5C2.5 5.46024 2.8731 5.83333 3.33333 5.83333H5C5.46024 5.83333 5.83333 5.46024 5.83333 5V3.33333C5.83333 2.8731 5.46024 2.5 5 2.5Z" stroke="black" stroke-linecap="round" stroke-linejoin="round"/>
<path d="M5 8.33398H3.33333C2.8731 8.33398 2.5 8.70708 2.5 9.16732V10.834C2.5 11.2942 2.8731 11.6673 3.33333 11.6673H5C5.46024 11.6673 5.83333 11.2942 5.83333 10.834V9.16732C5.83333 8.70708 5.46024 8.33398 5 8.33398Z" stroke="black" stroke-linecap="round" stroke-linejoin="round"/>
<path d="M5 14.166H3.33333C2.8731 14.166 2.5 14.5391 2.5 14.9993V16.666C2.5 17.1263 2.8731 17.4993 3.33333 17.4993H5C5.46024 17.4993 5.83333 17.1263 5.83333 16.666V14.9993C5.83333 14.5391 5.46024 14.166 5 14.166Z" stroke="black" stroke-linecap="round" stroke-linejoin="round"/>
</svg>
