<svg width="14" height="14" viewBox="0 0 14 14" fill="none" xmlns="http://www.w3.org/2000/svg">
<path d="M11.491 1.20979C11.5226 0.988255 11.465 0.763226 11.3307 0.584211C11.2642 0.495572 11.1809 0.420897 11.0855 0.364451C10.9902 0.308004 10.8846 0.270891 10.7749 0.255231C10.6652 0.239571 10.5535 0.24567 10.4462 0.273181C10.3389 0.300691 10.238 0.349074 10.1494 0.415566C9.97034 0.549854 9.852 0.749755 9.82038 0.971294L9.44237 3.62629H5.52175L5.866 1.21317C5.88597 1.10163 5.88327 0.98722 5.85807 0.876751C5.83286 0.766282 5.78566 0.662022 5.71929 0.57019C5.65291 0.478358 5.56872 0.400836 5.47173 0.342248C5.37475 0.28366 5.26695 0.245207 5.15478 0.229183C5.04261 0.213159 4.92837 0.219892 4.81885 0.24898C4.70934 0.278068 4.60681 0.328915 4.51738 0.398489C4.42795 0.468063 4.35344 0.554937 4.29831 0.653929C4.24318 0.752921 4.20856 0.862004 4.1965 0.974669L3.81625 3.62517H2.21875C1.99497 3.62502 1.7803 3.71377 1.62196 3.8719C1.46362 4.03003 1.37459 4.24458 1.37444 4.46836C1.37429 4.69213 1.46304 4.9068 1.62117 5.06514C1.7793 5.22348 1.99385 5.31252 2.21763 5.31267H3.5755L3.094 8.68767H1.09375C0.869974 8.68767 0.655362 8.77656 0.497129 8.9348C0.338895 9.09303 0.25 9.30764 0.25 9.53142C0.25 9.7552 0.338895 9.96981 0.497129 10.128C0.655362 10.2863 0.869974 10.3752 1.09375 10.3752H2.85438L2.51012 12.7872C2.49446 12.8969 2.50056 13.0086 2.52807 13.1159C2.55558 13.2232 2.60397 13.3241 2.67046 13.4128C2.73695 13.5014 2.82025 13.5761 2.9156 13.6325C3.01096 13.689 3.11649 13.7261 3.22619 13.7417C3.33588 13.7574 3.44759 13.7513 3.55493 13.7238C3.66226 13.6963 3.76313 13.6479 3.85177 13.5814C3.94041 13.5149 4.01508 13.4316 4.07153 13.3363C4.12798 13.2409 4.16509 13.1354 4.18075 13.0257L4.55875 10.3752H8.47937L8.13512 12.7872C8.11946 12.8969 8.12556 13.0086 8.15307 13.1159C8.18058 13.2232 8.22897 13.3241 8.29546 13.4128C8.36195 13.5014 8.44525 13.5761 8.54061 13.6325C8.63596 13.689 8.74149 13.7261 8.85119 13.7417C8.96088 13.7574 9.07259 13.7513 9.17992 13.7238C9.28726 13.6963 9.38813 13.6479 9.47677 13.5814C9.56541 13.5149 9.64008 13.4316 9.69653 13.3363C9.75298 13.2409 9.79009 13.1354 9.80575 13.0257L10.1849 10.3752H11.7812C12.005 10.3752 12.2196 10.2863 12.3779 10.128C12.5361 9.96981 12.625 9.7552 12.625 9.53142C12.625 9.30764 12.5361 9.09303 12.3779 8.9348C12.2196 8.77656 12.005 8.68767 11.7812 8.68767H10.4245L10.906 5.31267L12.9062 5.31379C13.13 5.31379 13.3446 5.2249 13.5029 5.06667C13.6611 4.90843 13.75 4.69382 13.75 4.47004C13.75 4.24627 13.6611 4.03166 13.5029 3.87342C13.3446 3.71519 13.13 3.62629 12.9062 3.62629H11.1467L11.491 1.20979ZM9.20162 5.31379L8.72013 8.68767H4.7995L5.281 5.31267H9.20162V5.31379Z" fill="black"/>
</svg>
