<svg width="20" height="20" viewBox="0 0 20 20" fill="none" xmlns="http://www.w3.org/2000/svg">
<path d="M16.5749 8.42018C16.3948 7.99574 16.1747 7.58946 15.9174 7.20685L14.5357 8.13935C14.9339 8.73129 15.2133 9.39499 15.3582 10.0935C15.5059 10.8217 15.5059 11.572 15.3582 12.3002C15.2858 12.6519 15.1786 12.9955 15.0382 13.326C14.9017 13.6507 14.7334 13.9611 14.5357 14.2527C14.1407 14.8352 13.6385 15.3372 13.0557 15.7318C12.4643 16.1299 11.8012 16.4092 11.1032 16.5543C10.3755 16.7002 9.62599 16.7002 8.89822 16.5543C7.85077 16.3392 6.8896 15.8211 6.13405 15.0643C5.63496 14.565 5.23661 13.9742 4.96072 13.3243C4.82151 12.9939 4.71489 12.6506 4.64238 12.2993C4.4224 11.2148 4.5333 10.0892 4.96072 9.06852C5.23555 8.41875 5.63373 7.82842 6.13322 7.33018C6.63248 6.83194 7.22256 6.43394 7.87155 6.15768C8.20072 6.01852 8.54655 5.91102 8.89655 5.83935C8.98572 5.82102 9.07655 5.81268 9.16655 5.79852V8.33268L13.3332 4.99935L9.16655 1.66602V4.11435C8.96397 4.13678 8.7624 4.16764 8.56238 4.20685C7.64918 4.39398 6.78182 4.75928 6.00988 5.28185C4.63862 6.20687 3.63116 7.57939 3.15967 9.16486C2.68818 10.7503 2.78192 12.4503 3.42488 13.9743C3.78284 14.8229 4.30217 15.5938 4.95405 16.2443C5.60505 16.8941 6.37484 17.4127 7.22155 17.7718C8.55267 18.335 10.0236 18.4801 11.4391 18.1877C12.5721 17.9535 13.6313 17.4477 14.5258 16.7138C15.4202 15.9799 16.1231 15.0398 16.5741 13.9743C16.7574 13.541 16.8982 13.0902 16.9907 12.6343C17.1839 11.6858 17.1839 10.7079 16.9907 9.75935C16.8958 9.30055 16.7565 8.85206 16.5749 8.42018V8.42018Z" fill="black"/>
</svg>
