<svg width="14" height="18" viewBox="0 0 14 18" fill="none" xmlns="http://www.w3.org/2000/svg">
<path d="M13.75 5.0625V15.75C13.75 16.3467 13.5129 16.919 13.091 17.341C12.669 17.7629 12.0967 18 11.5 18H2.5C1.90326 18 1.33097 17.7629 0.90901 17.341C0.487053 16.919 0.25 16.3467 0.25 15.75V2.25C0.25 1.65326 0.487053 1.08097 0.90901 0.65901C1.33097 0.237053 1.90326 0 2.5 0L8.6875 0L13.75 5.0625ZM10.375 5.0625C9.92745 5.0625 9.49822 4.88471 9.18176 4.56824C8.86529 4.25178 8.6875 3.82255 8.6875 3.375V1.125H2.5C2.20163 1.125 1.91548 1.24353 1.7045 1.4545C1.49353 1.66548 1.375 1.95163 1.375 2.25V15.75C1.375 16.0484 1.49353 16.3345 1.7045 16.5455C1.91548 16.7565 2.20163 16.875 2.5 16.875H11.5C11.7984 16.875 12.0845 16.7565 12.2955 16.5455C12.5065 16.3345 12.625 16.0484 12.625 15.75V5.0625H10.375Z" fill="black"/>
<path d="M3.0625 14.0625C3.0625 13.9133 3.12176 13.7702 3.22725 13.6648C3.33274 13.5593 3.47582 13.5 3.625 13.5H7C7.14918 13.5 7.29226 13.5593 7.39775 13.6648C7.50324 13.7702 7.5625 13.9133 7.5625 14.0625C7.5625 14.2117 7.50324 14.3548 7.39775 14.4602C7.29226 14.5657 7.14918 14.625 7 14.625H3.625C3.47582 14.625 3.33274 14.5657 3.22725 14.4602C3.12176 14.3548 3.0625 14.2117 3.0625 14.0625ZM3.0625 11.8125C3.0625 11.6633 3.12176 11.5202 3.22725 11.4148C3.33274 11.3093 3.47582 11.25 3.625 11.25H10.375C10.5242 11.25 10.6673 11.3093 10.7727 11.4148C10.8782 11.5202 10.9375 11.6633 10.9375 11.8125C10.9375 11.9617 10.8782 12.1048 10.7727 12.2102C10.6673 12.3157 10.5242 12.375 10.375 12.375H3.625C3.47582 12.375 3.33274 12.3157 3.22725 12.2102C3.12176 12.1048 3.0625 11.9617 3.0625 11.8125ZM4.90637 7.641L6.40262 8.63775L8.48837 6.55087C8.53013 6.509 8.58402 6.48135 8.64239 6.47186C8.70075 6.46237 8.76063 6.47151 8.8135 6.498L10.9375 7.59375V9.5625C10.9375 9.71168 10.8782 9.85476 10.7727 9.96025C10.6673 10.0657 10.5242 10.125 10.375 10.125H3.625C3.47582 10.125 3.33274 10.0657 3.22725 9.96025C3.12176 9.85476 3.0625 9.71168 3.0625 9.5625V9C3.0625 9 4.795 7.56675 4.90637 7.641ZM5.03125 6.75C5.25503 6.75 5.46964 6.66111 5.62787 6.50287C5.78611 6.34464 5.875 6.13003 5.875 5.90625C5.875 5.68247 5.78611 5.46786 5.62787 5.30963C5.46964 5.15139 5.25503 5.0625 5.03125 5.0625C4.80747 5.0625 4.59286 5.15139 4.43463 5.30963C4.27639 5.46786 4.1875 5.68247 4.1875 5.90625C4.1875 6.13003 4.27639 6.34464 4.43463 6.50287C4.59286 6.66111 4.80747 6.75 5.03125 6.75Z" fill="black"/>
</svg>
