<svg width="17" height="17" viewBox="0 0 17 17" fill="none" xmlns="http://www.w3.org/2000/svg">
<path d="M0 2.125C0 1.56141 0.223883 1.02091 0.622398 0.622398C1.02091 0.223883 1.56141 0 2.125 0L14.875 0C15.4386 0 15.9791 0.223883 16.3776 0.622398C16.7761 1.02091 17 1.56141 17 2.125V14.875C17 15.4386 16.7761 15.9791 16.3776 16.3776C15.9791 16.7761 15.4386 17 14.875 17H2.125C1.56141 17 1.02091 16.7761 0.622398 16.3776C0.223883 15.9791 0 15.4386 0 14.875V2.125ZM15.9375 4.25H11.6875V7.4375H15.9375V4.25ZM15.9375 8.5H11.6875V11.6875H15.9375V8.5ZM15.9375 12.75H11.6875V15.9375H14.875C15.1568 15.9375 15.427 15.8256 15.6263 15.6263C15.8256 15.427 15.9375 15.1568 15.9375 14.875V12.75ZM10.625 15.9375V12.75H6.375V15.9375H10.625ZM5.3125 15.9375V12.75H1.0625V14.875C1.0625 15.1568 1.17444 15.427 1.3737 15.6263C1.57296 15.8256 1.84321 15.9375 2.125 15.9375H5.3125ZM1.0625 11.6875H5.3125V8.5H1.0625V11.6875ZM1.0625 7.4375H5.3125V4.25H1.0625V7.4375ZM6.375 4.25V7.4375H10.625V4.25H6.375ZM10.625 8.5H6.375V11.6875H10.625V8.5Z" fill="black"/>
</svg>
